<svg
        xmlns="http://www.w3.org/2000/svg"
        viewBox="0 0 24 24"
        fill="currentColor"
>
    <path
            d="M12 0C5.37 0 0 5.37 0 12c0 5.3 3.44 9.8 8.2 11.38.6.1.82-.26.82-.58
    0-.28-.01-1.04-.02-2.04-3.34.73-4.04-1.61-4.04-1.61-.54-1.38-1.34-1.74-1.34-1.74
    -1.1-.75.08-.74.08-.74 1.2.09 1.84 1.24 1.84 1.24 1.08 1.84 2.82 1.31 3.5 1
    .1-.78.42-1.31.76-1.61-2.66-.3-5.47-1.33-5.47-5.93
    0-1.31.47-2.38 1.24-3.22-.13-.3-.54-1.52.12-3.18
    0 0 1-.32 3.3 1.23a11.5 11.5 0 0 1 6 0c2.3-1.55 3.3-1.23 3.3-1.23
    .66 1.66.25 2.88.12 3.18.77.84 1.24 1.91 1.24 3.22
    0 4.61-2.81 5.62-5.49 5.92.43.37.82 1.1.82 2.22
    0 1.61-.01 2.91-.01 3.31 0 .32.21.69.83.57A12.01 12.01 0 0 0 24 12
    c0-6.63-5.37-12-12-12Z"
    />
</svg>